# AST/ASF file generated using VICON BodyLanguage
# -----------------------------------------------
:version 1.10
:name VICON
:units
  mass 1.0
  length 0.45
  angle deg
:documentation
   .ast/.asf automatically generated from VICON data using
   VICON BodyBuilder and BodyLanguage model FoxedUp or BRILLIANT.MOD
:root
   order TX TY TZ RX RY RZ
   axis XYZ
   position 0 0 0  
   orientation 0 0 0 
:bonedata
  begin
     id 1 
     name lhipjoint
     direction 0.602128 -0.715006 0.355257 
     length 2.21237 
     axis 0 0 0  XYZ
  end
  begin
     id 2 
     name lfemur
     direction 0.34202 -0.939693 0  
     length 6.71649  
     axis 0 0 20  XYZ
    dof rx ry rz
    limits (-160.0 20.0)
           (-70.0 70.0)
           (-60.0 70.0)
  end
  begin
     id 3 
     name ltibia
     direction 0.34202 -0.939693 0   
     length 6.97123   
     axis 0 0 20   XYZ
    dof rx
    limits (-10.0 170.0)
  end
  begin
     id 4 
     name lfoot
     direction 0.0655697 -0.180151 0.981451   
     length 1.80924   
     axis -90 7.62852e-016 20   XYZ
    dof rx rz
    limits (-45.0 90.0)
           (-70.0 20.0)
  end
  begin
     id 5 
     name ltoes
     direction 1.53545e-011 -4.21827e-011 1   
     length 0.916331   
     axis -90 7.62852e-016 20   XYZ
    dof rx
    limits (-90.0 20.0)
  end
  begin
     id 6 
     name rhipjoint
     direction -0.625414 -0.698792 0.347201   
     length 2.2637  
     axis 0 0 0  XYZ 
  end
  begin
     id 7 
     name rfemur
     direction -0.34202 -0.939693 0   
     length 7.07595   
     axis 0 0 -20   XYZ
    dof rx ry rz
    limits (-160.0 20.0)
           (-70.0 70.0)
           (-70.0 60.0)
  end
  begin
     id 8 
     name rtibia
     direction -0.34202 -0.939693 0   
     length 7.22924   
     axis 0 0 -20   XYZ
    dof rx
    limits (-10.0 170.0)
 end
 begin
     id 9 
     name rfoot
     direction -0.0766747 -0.210662 0.974547   
     length 1.98482  
     axis -90 -7.62852e-016 -20   XYZ
    dof rx rz
    limits (-45.0 90.0)
           (-20.0 70.0)
  end
  begin
     id 10 
     name rtoes
     direction -1.53532e-011 -4.21867e-011 1   
     length 0.999842   
     axis -90 -7.62852e-016 -20   XYZ
    dof rx
    limits (-90.0 20.0)
  end
  begin
     id 11 
     name lowerback
     direction -0.0224668 0.997354 -0.0691422   
     length 2.09945   
     axis 0 0 0   XYZ
    dof rx ry rz
    limits (-20.0 45.0)
           (-30.0 30.0)
           (-30.0 30.0)
  end
  begin
     id 12 
     name upperback
     direction 0.0134698 0.998451 -0.0539888   
     length 2.09758   
     axis 0 0 0   XYZ
    dof rx ry rz
    limits (-20.0 45.0)
           (-30.0 30.0)
           (-30.0 30.0)
  end
  begin
     id 13 
     name thorax
     direction 0.0241905 0.99948 -0.0213333   
     length 2.10428   
     axis 0 0 0   XYZ
    dof rx ry rz
    limits (-20.0 45.0)
           (-30.0 30.0)
           (-30.0 30.0)
  end
  begin
     id 14 
     name lowerneck
     direction -0.00866847 0.995978 0.0891737   
     length 1.3959   
     axis 0 0 0   XYZ
    dof rx ry rz
    limits (-20.0 45.0)
           (-30.0 30.0)
           (-30.0 30.0)
  end
  begin
     id 15 
     name upperneck
     direction 0.0680679 0.992203 0.104404   
     length 1.39452   
     axis 0 0 0   XYZ
    dof rx ry rz
    limits (-20.0 45.0)
           (-30.0 30.0)
           (-30.0 30.0)
  end
  begin
     id 16
     name head
     direction 0.0242216 0.999358 0.0264054  
     length 1.40433  
     axis 0 0 0   XYZ
    dof rx ry rz
    limits (-20.0 45.0)
           (-30.0 30.0)
           (-30.0 30.0)
  end
  begin
     id 17 
     name lclavicle
     direction 0.929368 0.362991 -0.0671771  
     length 3.04887  
     axis 0 0 0   XYZ
    dof ry rz
    limits (-20.0 10.0)
           (0.0 20.0)
  end
  begin
     id 18 
     name lhumerus
     direction 1 -4.48967e-011 -7.13741e-028   
     length 4.77195   
     axis -180 -30 -90   XYZ
    dof rx ry rz
    limits (-60.0 90.0)
           (-90.0 90.0)
           (-90.0 90.0)
  end
  begin
     id 19
     name lradius
     direction 1 -4.48977e-011 3.60404e-027   
     length 2.98444   
     axis -180 -30 -90   XYZ
    dof rx
    limits (-10.0 170.0)
  end
  begin
     id 20
     name lwrist
     direction 1 -4.48997e-011 7.54877e-027   
     length 1.49222   
     axis -7.18178e-015 90 90   XYZ
    dof ry
    limits (-180.0 0.0)
 end
  begin
     id 21 
     name lhand
     direction 1 -4.489e-011 1.51105e-026   
     length 0.992285   
     axis -9.63605e-015 90 90   XYZ
    dof rx rz
    limits (-90.0 90.0)
           (-45.0 45.0)
  end
  begin
     id 22 
     name lfingers
     direction 1 -4.48998e-011 3.01948e-026   
     length 0.800006   
     axis -1.92718e-014 90 90   XYZ
    dof rx
    limits (0.0 90.0)
  end
  begin
     id 23
     name lthumb
     direction 0.707107 -6.34881e-011 0.707107   
     length 1.14865   
     axis -90 45 -3.53137e-014   XYZ
    dof rx rz
    limits (-45.0 45.0)
           (-45.0 45.0)
  end
  begin
     id 24 
     name rclavicle
     direction -0.945672 0.324529 0.0196374   
     length 3.4236  
     axis 0 0 0   XYZ 
    dof ry rz
    limits (-10.0 20.0)
           (-20.0 0.0)
  end
  begin
     id 25 
     name rhumerus
     direction -1 -4.4896e-011 1.02757e-029  
     length 4.62052   
     axis -180 30 90   XYZ
    dof rx ry rz
    limits (-90.0 60.0)
           (-90.0 90.0)
           (-90.0 90.0)
  end
  begin
     id 26 
     name rradius
     direction -1 -4.48982e-011 3.85962e-027   
     length 2.95332   
     axis -180 30 90   XYZ
    dof rx
    limits (-10.0 170.0)
  end
  begin
     id 27 
     name rwrist
     direction -1 -4.48961e-011 7.55118e-027   
     length 1.47666   
     axis -7.18178e-015 -90 -90   XYZ
    dof ry
    limits (-180.0 0.0)
  end
  begin
     id 28
     name rhand
     direction -1 -4.48984e-011 1.50994e-026   
     length 0.990956   
     axis -9.63605e-015 -90 -90   XYZ
    dof rx rz
    limits (-90.0 90.0)
           (-45.0 45.0)
  end
  begin
     id 29
     name rfingers
     direction -1 -4.4892e-011 3.02158e-026   
     length 0.798934   
     axis -1.92718e-014 -90 -90   XYZ
    dof rx
    limits (0.0 90.0)
  end
  begin
     id 30
     name rthumb
     direction -0.707107 -6.34916e-011 0.707107   
     length 1.14711   
     axis -90 -45 3.53137e-014   XYZ
    dof rx rz
    limits (-45.0 45.0)
           (-45.0 45.0)
  end
:hierarchy
  begin
    root lhipjoint rhipjoint lowerback
    lhipjoint lfemur
    lfemur ltibia
    ltibia lfoot
    lfoot ltoes
    rhipjoint rfemur
    rfemur rtibia
    rtibia rfoot
    rfoot rtoes
    lowerback upperback
    upperback thorax
    thorax lowerneck lclavicle rclavicle
    lowerneck upperneck
    upperneck head
    lclavicle lhumerus
    lhumerus lradius
    lradius lwrist
    lwrist lhand lthumb
    lhand lfingers
    rclavicle rhumerus
    rhumerus rradius
    rradius rwrist
    rwrist rhand rthumb
    rhand rfingers
  end

#!OML:ASF H:\ManfredObstacles\Project 1\Capture day 1\Session 1\Male.ASF
:FULLY-SPECIFIED
:DEGREES
94
root 5.69922 16.248 28.9508 -171.036 -3.79546 -178.453
lowerback -7.66362 -1.32865 0.307642
upperback 1.81502 -1.81294 0.125752
thorax 6.19207 -0.883493 -0.275241
lowerneck 0.65796 -2.41501 -4.75528
upperneck -4.8934 -2.73105 9.24513
head -1.47598 -1.35023 3.91158
rclavicle -3.23025e-015 -3.97569e-015
rhumerus -40.2124 -31.0876 -70.7352
rradius 26.1891
rwrist 33.6908
rhand -1.04192 -5.82047
rfingers 7.12502
rthumb 24.592 -34.2608
lclavicle -3.23025e-015 -3.97569e-015
lhumerus -26.4297 5.72663 84.942
lradius 22.831
lwrist -24.9065
lhand -9.26523 7.89978
lfingers 7.12502
lthumb 16.6911 37.2022
rfemur -16.5568 -4.91782 25.9918
rtibia 23.7973
rfoot -20.9405 20.9551
rtoes 17.8667
lfemur -34.2913 -4.04149 -15.7485
ltibia 58.2007
lfoot -3.63931 2.79834
ltoes 9.21135
95
root 5.70855 16.2339 28.8406 -171.096 -3.28678 -178.308
lowerback -7.5221 -1.19087 0.517418
upperback 1.81838 -1.64903 0.122767
thorax 6.10952 -0.795616 -0.371653
lowerneck 0.740949 -2.34189 -4.75692
upperneck -4.97685 -2.63627 9.15098
head -1.52661 -1.3055 3.8816
rclavicle 7.05686e-015 -2.18663e-015
rhumerus -39.829 -30.5264 -71.3072
rradius 26.3682
rwrist 33.2784
rhand -0.892235 -5.99768
rfingers 7.12502
rthumb 24.7355 -34.4185
lclavicle 7.05686e-015 -2.18663e-015
lhumerus -26.6262 6.11247 84.5255
lradius 22.6647
lwrist -25.2488
lhand -9.15954 7.99193
lfingers 7.12502
lthumb 16.7929 37.2857
rfemur -16.1718 -4.76159 26.1413
rtibia 24.0146
rfoot -21.6578 21.1858
rtoes 17.7982
lfemur -35.1136 -4.24116 -15.5204
ltibia 56.0395
lfoot -2.26889 4.75372
ltoes 11.5324
96
root 5.71476 16.2188 28.7226 -171.115 -2.58307 -178.139
lowerback -7.52455 -0.962274 0.795991
upperback 1.84396 -1.36843 0.0704135
thorax 6.13243 -0.646025 -0.547569
lowerneck 0.818932 -2.28853 -4.66596
upperneck -5.01056 -2.57062 9.02673
head -1.55885 -1.27594 3.82193
rclavicle -4.72114e-015 -1.98785e-016
rhumerus -39.4763 -30.076 -71.8813
rradius 26.6018
rwrist 32.7943
rhand -0.674937 -5.99545
rfingers 7.12502
rthumb 24.9437 -34.3875
lclavicle -4.72114e-015 -1.98785e-016
lhumerus -26.8338 6.45796 84.0248
lradius 22.4419
lwrist -25.5983
lhand -9.35784 8.0866
lfingers 7.12502
lthumb 16.602 37.3965
rfemur -15.744 -4.61996 26.2931
rtibia 24.1023
rfoot -22.1695 21.6886
rtoes 17.4355
lfemur -35.7037 -4.2838 -15.2467
ltibia 53.593
lfoot -4.45798 3.12151
ltoes 8.21637
97
root 5.71705 16.2048 28.6084 -171.065 -2.1468 -178.229
lowerback -7.50119 -0.830328 0.867011
upperback 1.84323 -1.19216 -0.0411009
thorax 6.1169 -0.554425 -0.681057
lowerneck 0.799503 -2.25327 -4.55123
upperneck -4.97234 -2.53407 8.86071
head -1.54813 -1.25828 3.73973
rclavicle 7.70291e-015 -5.96354e-015
rhumerus -39.1758 -29.9038 -72.3078
rradius 26.7828
rwrist 32.6974
rhand -0.604216 -5.82655
rfingers 7.12502
rthumb 25.0115 -34.2092
lclavicle 7.70291e-015 -5.96354e-015
lhumerus -27.0436 6.80526 83.505
lradius 22.1785
lwrist -25.982
lhand -9.57438 7.87473
lfingers 7.12502
lthumb 16.3935 37.202
rfemur -15.3223 -4.63152 26.167
rtibia 24.0299
rfoot -22.553 22.1005
rtoes 16.5943
lfemur -36.2869 -4.58594 -15.2176
ltibia 50.864
lfoot -4.51743 2.67507
ltoes 9.61999
98
root 5.7194 16.2029 28.4905 -171.051 -1.73457 -178.404
lowerback -7.45537 -0.710528 0.778325
upperback 1.88821 -1.0184 -0.12765
thorax 6.14097 -0.470247 -0.699351
lowerneck 0.619117 -2.21724 -4.49827
upperneck -4.94778 -2.4885 8.71948
head -1.51255 -1.23054 3.67532
rclavicle -2.18663e-015 -1.98785e-015
rhumerus -38.7721 -29.9073 -72.6226
rradius 26.7993
rwrist 32.8137
rhand -0.68764 -5.68588
rfingers 7.12502
rthumb 24.9316 -34.0796
lclavicle -2.18663e-015 -1.98785e-015
lhumerus -27.0476 7.36988 82.9957
lradius 21.6735
lwrist -26.4825
lhand -9.59472 7.51636
lfingers 7.12502
lthumb 16.3739 36.8452
rfemur -14.8064 -4.69207 25.9409
rtibia 23.8836
rfoot -22.9852 22.4683
rtoes 14.9234
lfemur -36.682 -4.75949 -15.2945
ltibia 47.9342
lfoot -4.31222 2.44506
ltoes 9.15031
99
root 5.71875 16.2036 28.3677 -171.113 -1.34168 -178.342
lowerback -7.36569 -0.597713 0.867766
upperback 1.94576 -0.878424 -0.0947954
thorax 6.15199 -0.39865 -0.697
lowerneck 0.485386 -2.13723 -4.51424
upperneck -4.93826 -2.3889 8.56007
head -1.49381 -1.1767 3.61909
rclavicle -7.40473e-015 -2.18663e-015
rhumerus -38.2796 -29.4919 -73.051
rradius 26.8696
rwrist 32.5113
rhand -0.692446 -5.8338
rfingers 7.12502
rthumb 24.927 -34.2282
lclavicle -7.40473e-015 -2.18663e-015
lhumerus -26.9975 8.58611 82.4163
lradius 20.9732
lwrist -27.5216
lhand -9.56199 7.4157
lfingers 7.12502
lthumb 16.4054 36.7419
rfemur -14.1644 -4.79718 25.9516
rtibia 23.6982
rfoot -23.3371 22.8568
rtoes 13.7718
lfemur -36.8634 -4.8053 -15.1622
ltibia 44.9052
lfoot -3.89157 1.88332
ltoes 9.22573
100
root 5.71418 16.1992 28.2421 -171.188 -1.02706 -178.234
lowerback -7.27252 -0.533408 1.00182
upperback 1.98907 -0.809603 -0.0254535
thorax 6.14489 -0.36136 -0.690572
lowerneck 0.446505 -2.0301 -4.64567
upperneck -4.87882 -2.26138 8.46848
head -1.47654 -1.11109 3.60987
rclavicle 1.98785e-015 -2.5842e-015
rhumerus -37.7956 -28.9348 -73.4595
rradius 26.9432
rwrist 32.1823
rhand -0.57775 -6.1841
rfingers 7.12502
rthumb 25.0369 -34.5632
lclavicle 1.98785e-015 -2.5842e-015
lhumerus -27.0151 9.92428 81.8335
lradius 20.2288
lwrist -28.6326
lhand -9.5909 7.48032
lfingers 7.12502
lthumb 16.3776 36.8089
rfemur -13.424 -4.71461 25.982
rtibia 23.3929
rfoot -23.5583 23.0317
rtoes 14.6852
lfemur -36.9144 -4.8921 -15.001
ltibia 41.8391
lfoot -3.32269 1.32547
ltoes 9.06842
101
root 5.71034 16.1949 28.117 -171.222 -0.739556 -178.337
lowerback -7.25817 -0.482882 0.886771
upperback 2.04976 -0.73162 -0.028227
thorax 6.20344 -0.32691 -0.619411
lowerneck 0.532208 -1.97699 -4.78161
upperneck -4.95535 -2.19521 8.44545
head -1.52096 -1.07919 3.63077
rclavicle -8.74653e-015 -5.96354e-016
rhumerus -37.2763 -28.8479 -73.6973
rradius 26.7348
rwrist 32.2863
rhand -0.615534 -6.17686
rfingers 7.12502
rthumb 25.0007 -34.561
lclavicle -8.74653e-015 -5.96354e-016
lhumerus -27.0287 11.0061 81.2624
lradius 19.5416
lwrist -29.5146
lhand -9.51491 7.65596
lfingers 7.12502
lthumb 16.4507 36.9785
rfemur -12.6811 -4.56499 25.7844
rtibia 22.9798
rfoot -23.8102 23.1132
rtoes 14.7306
lfemur -36.9042 -4.83165 -15.1314
ltibia 38.8166
lfoot -2.46719 0.529621
ltoes 8.33939
102
root 5.70916 16.1978 27.9901 -171.248 -0.290888 -178.505
lowerback -7.37732 -0.367655 0.575141
upperback 2.1686 -0.549237 -0.0369457
thorax 6.40277 -0.2481 -0.432313
lowerneck 0.696146 -1.98923 -4.82434
upperneck -5.16285 -2.21107 8.35659
head -1.61728 -1.09061 3.61514
rclavicle 2.6339e-015 -1.59028e-015
rhumerus -36.7142 -28.7566 -73.9712
rradius 26.5584
rwrist 32.4076
rhand -0.693972 -5.91213
rfingers 7.12502
rthumb 24.9255 -34.3067
lclavicle 2.6339e-015 -1.59028e-015
lhumerus -27.0275 12.2997 80.6377
lradius 18.9236
lwrist -30.7448
lhand -9.36413 7.92386
lfingers 7.12502
lthumb 16.5959 37.2343
rfemur -11.9451 -4.49315 25.5091
rtibia 22.5434
rfoot -23.6392 23.3808
rtoes 12.2949
lfemur -36.7759 -4.41843 -15.4458
ltibia 35.9236
lfoot -1.50606 -0.579003
ltoes 5.72178
